<svg xmlns="http://www.w3.org/2000/svg" width="1200" height="1200"><path fill-rule="evenodd" clip-rule="evenodd" fill="#F7941E" d="M550.422 290.782c-1.929 18.994-7.456 37.375-16.326 54.261l143.954 146.989c20.593-9.925 43.002-15.439 65.961-16.236l59.945-197.528c-15.307-11.352-28.341-25.543-38.354-41.754l-215.18 54.268zm-23.997-97.716l218.266-55.049c9.794-73.383 72.698-129.678 148.337-129.678 82.635 0 149.661 67.03 149.661 149.664 0 80.584-63.738 146.32-143.525 149.538l-59.143 194.862c46.633 30.299 75.373 82.311 75.373 138.865 0 47.468-20.218 92.066-55.058 123.282l64.754 129.255c6.939-.989 13.952-1.47 20.979-1.47 82.639 0 149.662 67.027 149.662 149.665 0 82.634-67.023 149.661-149.662 149.661s-149.665-67.027-149.665-149.661c0-38.274 14.528-74.625 40.342-102.21l-67.195-134.124c-6.543.783-13.132 1.178-19.73 1.178-33.522 0-65.877-10.053-93.263-28.776l-76.083 67.009c.514 3.934.767 7.907.767 11.891 0 50.415-40.89 91.316-91.311 91.316-50.423 0-91.319-40.901-91.319-91.316 0-50.425 40.896-91.324 91.319-91.324 8.7 0 17.312 1.232 25.612 3.653l79.255-69.797c-4.035-10.729-6.928-21.852-8.652-33.19l-188.937-25.45c-25.852 48.044-76.254 78.745-131.815 78.745-82.637 0-149.661-67.029-149.661-149.661 0-82.637 67.023-149.659 149.661-149.659 72.708 0 134.096 52.147 147.114 122.061l188.905 25.453c1.258-2.536 2.582-5.04 3.969-7.512l-144.344-147.39c-18.729 8.13-38.933 12.318-59.508 12.318-82.636 0-149.663-67.025-149.663-149.662s67.027-149.663 149.663-149.663c50.722 0 97.415 25.58 124.895 67.176z"/></svg>